<?xml version="1.0" encoding="UTF-8" standalone="no"?>
<!-- Created with Inkscape (http://www.inkscape.org/) -->

<svg
   xmlns:dc="http://purl.org/dc/elements/1.1/"
   xmlns:cc="http://creativecommons.org/ns#"
   xmlns:rdf="http://www.w3.org/1999/02/22-rdf-syntax-ns#"
   xmlns:svg="http://www.w3.org/2000/svg"
   xmlns="http://www.w3.org/2000/svg"
   xmlns:xlink="http://www.w3.org/1999/xlink"
   xmlns:sodipodi="http://sodipodi.sourceforge.net/DTD/sodipodi-0.dtd"
   xmlns:inkscape="http://www.inkscape.org/namespaces/inkscape"
   width="76.191467mm"
   height="15.319721mm"
   viewBox="0 0 76.191467 15.319721"
   version="1.1"
   id="svg998"
   inkscape:version="0.92.4 (5da689c313, 2019-01-14)"
   sodipodi:docname="logo-short.svg"
   inkscape:export-filename="/kammer/bastelecke/github/git-siduction/artwork-base/logo-short.png"
   inkscape:export-xdpi="90"
   inkscape:export-ydpi="90">
  <defs
     id="defs992">
    <linearGradient
       id="linearGradient6147-1-1-4-4-7-0-8">
      <stop
         id="stop6149-6-3-9-3-3-6-8"
         offset="0"
         style="stop-color:#5f8dd3;stop-opacity:1;" />
      <stop
         id="stop6151-5-0-9-5-1-1-4"
         offset="1"
         style="stop-color:#162d50;stop-opacity:1;" />
    </linearGradient>
    <filter
       y="-0.25"
       x="-0.25"
       height="1.5"
       width="1.5"
       inkscape:label="Drop shadow"
       id="filter8554-99-02-3-9"
       style="color-interpolation-filters:sRGB">
      <feGaussianBlur
         result="blur"
         stdDeviation="1"
         in="SourceAlpha"
         id="feGaussianBlur8556-3-0-6-6" />
      <feColorMatrix
         values="-1 0 0 0 1 0 -1 0 0 1 0 0 -1 0 1 0 0 0 0.5 0 "
         type="matrix"
         result="bluralpha"
         id="feColorMatrix8558-6-1-1-3" />
      <feOffset
         result="offsetBlur"
         dy="-1"
         dx="1"
         in="bluralpha"
         id="feOffset8560-0-9-0-0" />
      <feMerge
         id="feMerge8562-5-62-6-7">
        <feMergeNode
           in="offsetBlur"
           id="feMergeNode8564-0-1-3-3" />
        <feMergeNode
           in="SourceGraphic"
           id="feMergeNode8566-2-20-2-6" />
      </feMerge>
    </filter>
    <radialGradient
       r="57.480274"
       fy="477.45059"
       fx="1027.8583"
       cy="477.45059"
       cx="1027.8583"
       spreadMethod="pad"
       gradientTransform="matrix(1.0507753,1.0507753,-1.0507833,1.0507833,525.88971,-1084.3827)"
       gradientUnits="userSpaceOnUse"
       id="radialGradient4414-6-37"
       xlink:href="#linearGradient6147-1-1-4-4-7-0-8"
       inkscape:collect="always" />
    <radialGradient
       r="57.480274"
       fy="477.45059"
       fx="1027.8583"
       cy="477.45059"
       cx="1027.8583"
       spreadMethod="pad"
       gradientTransform="matrix(0.94569776,0.94569776,-0.94570497,0.94570497,447.86331,-788.20071)"
       gradientUnits="userSpaceOnUse"
       id="radialGradient4416-0-2"
       xlink:href="#linearGradient6147-1-1-4-4-7-0-8"
       inkscape:collect="always" />
    <radialGradient
       r="57.480274"
       fy="477.45059"
       fx="1027.8583"
       cy="477.45059"
       cx="1027.8583"
       spreadMethod="pad"
       gradientTransform="matrix(0.94569776,0.94569776,-0.94570497,0.94570497,450.90469,-1055.4519)"
       gradientUnits="userSpaceOnUse"
       id="radialGradient4418-7-2"
       xlink:href="#linearGradient6147-1-1-4-4-7-0-8"
       inkscape:collect="always" />
    <radialGradient
       r="57.480274"
       fy="477.45059"
       fx="1027.8583"
       cy="477.45059"
       cx="1027.8583"
       spreadMethod="pad"
       gradientTransform="matrix(0.85112803,0.85112803,-0.85113446,0.85113446,367.16622,-775.37358)"
       gradientUnits="userSpaceOnUse"
       id="radialGradient4420-0-8"
       xlink:href="#linearGradient6147-1-1-4-4-7-0-8"
       inkscape:collect="always" />
    <radialGradient
       r="57.480274"
       fy="477.45059"
       fx="1027.8583"
       cy="477.45059"
       cx="1027.8583"
       spreadMethod="pad"
       gradientTransform="matrix(0.85112803,0.85112803,-0.85113446,0.85113446,372.26819,-1040.5642)"
       gradientUnits="userSpaceOnUse"
       id="radialGradient4422-1-9"
       xlink:href="#linearGradient6147-1-1-4-4-7-0-8"
       inkscape:collect="always" />
    <radialGradient
       r="57.480274"
       fy="477.45059"
       fx="1027.8583"
       cy="477.45059"
       cx="1027.8583"
       spreadMethod="pad"
       gradientTransform="matrix(0.85112803,0.85112803,-0.85113446,0.85113446,374.01573,-518.01311)"
       gradientUnits="userSpaceOnUse"
       id="radialGradient4424-0-7"
       xlink:href="#linearGradient6147-1-1-4-4-7-0-8"
       inkscape:collect="always" />
    <radialGradient
       r="57.480274"
       fy="477.45059"
       fx="1027.8583"
       cy="477.45059"
       cx="1027.8583"
       spreadMethod="pad"
       gradientTransform="matrix(0.76601521,0.76601521,-0.76602101,0.76602101,288.17779,-519.67927)"
       gradientUnits="userSpaceOnUse"
       id="radialGradient4426-1-3"
       xlink:href="#linearGradient6147-1-1-4-4-7-0-8"
       inkscape:collect="always" />
    <radialGradient
       r="57.480274"
       fy="477.45059"
       fx="1027.8583"
       cy="477.45059"
       cx="1027.8583"
       spreadMethod="pad"
       gradientTransform="matrix(0.76601521,0.76601521,-0.76602101,0.76602101,283.38898,-774.97902)"
       gradientUnits="userSpaceOnUse"
       id="radialGradient4428-3-6"
       xlink:href="#linearGradient6147-1-1-4-4-7-0-8"
       inkscape:collect="always" />
    <radialGradient
       r="57.480274"
       fy="477.45059"
       fx="1027.8583"
       cy="477.45059"
       cx="1027.8583"
       spreadMethod="pad"
       gradientTransform="matrix(0.68941368,0.68941368,-0.68941893,0.68941893,199.77384,-532.32858)"
       gradientUnits="userSpaceOnUse"
       id="radialGradient4430-7-1"
       xlink:href="#linearGradient6147-1-1-4-4-7-0-8"
       inkscape:collect="always" />
  </defs>
  <sodipodi:namedview
     id="base"
     pagecolor="#ffffff"
     bordercolor="#666666"
     borderopacity="1.0"
     inkscape:pageopacity="0.0"
     inkscape:pageshadow="2"
     inkscape:zoom="0.98994949"
     inkscape:cx="-295.32107"
     inkscape:cy="200.19267"
     inkscape:document-units="mm"
     inkscape:current-layer="layer1"
     showgrid="false"
     fit-margin-top="0"
     fit-margin-left="0"
     fit-margin-right="0"
     fit-margin-bottom="0"
     inkscape:window-width="1440"
     inkscape:window-height="844"
     inkscape:window-x="0"
     inkscape:window-y="32"
     inkscape:window-maximized="1" />
  <metadata
     id="metadata995">
    <rdf:RDF>
      <cc:Work
         rdf:about="">
        <dc:format>image/svg+xml</dc:format>
        <dc:type
           rdf:resource="http://purl.org/dc/dcmitype/StillImage" />
        <dc:title></dc:title>
      </cc:Work>
    </rdf:RDF>
  </metadata>
  <g
     inkscape:label="Ebene 1"
     inkscape:groupmode="layer"
     id="layer1"
     transform="translate(-97.975692,-250.03062)">
    <g
       transform="matrix(0.26458333,0,0,0.26458333,180.29467,-71.909541)"
       id="g1959">
      <g
         id="g8175-0-0"
         style="fill:#162d50;filter:url(#filter8554-99-02-3-9)"
         transform="matrix(0.92404191,0,0,0.89991826,-1603.1444,337.86433)">
        <g
           style="fill:#162d50;fill-opacity:1"
           inkscape:export-ydpi="90"
           inkscape:export-xdpi="90"
           inkscape:export-filename="/home/xweber/src/siduction/artwork-newsid/candidates/document/ec-dots.png"
           id="g5199-50-5-8-3-5-9-5-7-6-0-6-6-3-4-0-2-3-24-8-0-1-1-3-6-9"
           transform="matrix(0.65596408,0,0,0.65596408,1303.3516,859.7596)">
          <path
             inkscape:connector-curvature="0"
             id="path3617-6-5-3-1-8-1-3-1-36-1-6-8-3-7-1-8-2-7-12-8-7-5-6-8-9"
             style="font-style:normal;font-variant:normal;font-weight:normal;font-stretch:normal;font-size:268.14126587px;line-height:125%;font-family:Axaxax;-inkscape-font-specification:Axaxax;letter-spacing:0px;word-spacing:0px;fill:#162d50;fill-opacity:1;stroke:none"
             d="m 180.33853,201.32472 q 10.66976,0 15.41187,2.37107 4.7421,2.37104 4.7421,7.62125 0,1.94764 -1.60893,2.79444 -1.52424,0.76213 -3.64127,0.76213 -2.20168,0 -3.81061,-0.9315 -1.60894,-0.93147 -1.60894,-2.62507 0,-0.76214 -1.86297,-1.60894 -1.86297,-0.8468 -6.68978,-0.8468 -3.21784,0 -5.16551,0.25403 -1.94763,0.25404 -3.0485,0.67744 -1.10084,0.33873 -1.43957,0.9315 -0.3387,0.50807 -0.3387,1.01617 0,0.67743 0.3387,1.2702 0.33873,0.59277 1.3549,1.01617 1.01617,0.33873 2.79444,0.59277 1.7783,0.16936 4.65744,0.16936 5.67361,0 9.56892,0.67744 3.89531,0.59277 6.26634,1.94764 2.37107,1.3549 3.38724,3.5566 1.01617,2.11701 1.01617,5.16551 0,2.28637 -1.43957,4.23404 -1.43957,1.86297 -4.14937,3.30254 -2.62507,1.35487 -6.35101,2.11701 -3.72598,0.76213 -8.21402,0.76213 -4.23404,0 -7.95998,-0.59277 -3.64127,-0.59276 -6.35105,-1.7783 -2.70977,-1.18553 -4.3187,-2.96381 -1.60894,-1.86297 -1.60894,-4.4034 0,-2.11701 1.60894,-3.21784 1.6936,-1.18554 3.97997,-1.18554 2.03234,0 3.55657,1.10084 1.52427,1.01617 1.52427,3.0485 0,0.67744 2.03234,1.35491 2.03234,0.67743 7.11315,0.67743 5.58894,0 7.79061,-0.8468 2.2864,-0.8468 2.2864,-2.28637 0,-0.76214 -0.42343,-1.3549 -0.4234,-0.59277 -1.52423,-1.01617 -1.10084,-0.4234 -2.96381,-0.59277 -1.86297,-0.25403 -4.74211,-0.25403 -4.40341,0 -8.04468,-0.59277 -3.55657,-0.67744 -6.18168,-1.94764 -2.5404,-1.3549 -3.97997,-3.30257 -1.3549,-2.03231 -1.3549,-4.82678 0,-2.28637 0.8468,-4.14934 0.8468,-1.86297 3.0485,-3.21787 2.20171,-1.3549 5.92765,-2.11701 3.72594,-0.76213 9.56891,-0.76213 z"
             inkscape:export-filename="/home/xweber/daten/siduction/text_plus_symbol_as_bit1.png"
             inkscape:export-xdpi="150"
             inkscape:export-ydpi="150" />
          <path
             inkscape:connector-curvature="0"
             id="path3619-5-0-8-8-4-4-7-6-0-7-2-3-9-7-5-4-6-4-8-1-2-9-4-7-4"
             style="font-style:normal;font-variant:normal;font-weight:normal;font-stretch:normal;font-size:268.14126587px;line-height:125%;font-family:Axaxax;-inkscape-font-specification:Axaxax;letter-spacing:0px;word-spacing:0px;fill:#162d50;fill-opacity:1;stroke:none"
             d="m 211.34486,190.23157 q 2.20167,0 3.72594,1.18553 1.60893,1.10084 1.60893,3.04851 v 1.86297 q 0,2.117 -1.60893,3.21784 -1.52427,1.10087 -3.72594,1.10087 -2.28641,0 -3.81064,-1.18554 -1.52424,-1.18553 -1.52424,-3.13317 v -1.86297 q 0,-1.77831 1.43957,-2.96384 1.43957,-1.2702 3.89531,-1.2702 z m 0,13.29485 q 2.20167,0 3.72594,1.10084 1.60893,1.10084 1.60893,3.21787 v 23.79525 q 0,2.03233 -1.60893,3.21784 -1.52427,1.10086 -3.72594,1.10086 -2.45574,0 -3.89531,-1.2702 -1.43957,-1.27023 -1.43957,-3.0485 v -23.79525 q 0,-1.94767 1.52424,-3.13317 1.52423,-1.18554 3.81064,-1.18554 z"
             inkscape:export-filename="/home/xweber/daten/siduction/text_plus_symbol_as_bit1.png"
             inkscape:export-xdpi="150"
             inkscape:export-ydpi="150" />
          <path
             inkscape:connector-curvature="0"
             id="path3621-0-7-7-0-0-3-6-4-4-7-9-2-0-0-8-3-0-7-9-2-4-7-7-9-5"
             style="font-style:normal;font-variant:normal;font-weight:normal;font-stretch:normal;font-size:268.14126587px;line-height:125%;font-family:Axaxax;-inkscape-font-specification:Axaxax;letter-spacing:0px;word-spacing:0px;fill:#162d50;fill-opacity:1;stroke:none"
             d="m 256.46897,190.23157 q 2.45574,0 3.89531,1.2702 1.43957,1.18553 1.43957,2.96384 v 37.25943 q 0,4.23404 -5.25021,4.23404 h -14.98846 q -10.16166,0 -14.98846,-2.70977 -4.82678,-2.7098 -4.82678,-8.21401 v -12.44806 q 0,-10.66975 18.46037,-10.66975 h 3.3872 q 2.54041,0 3.89531,1.2702 1.43957,1.18554 1.43957,2.96384 0,1.94764 -1.52424,3.13317 -1.52427,1.18554 -3.81064,1.18554 h -3.3872 q -7.79062,0 -7.79062,3.64124 v 8.97615 q 0,2.2017 2.20167,3.30254 2.20171,1.01617 7.02852,1.01617 h 9.48421 v -32.94073 q 0,-1.94767 1.60894,-3.04851 1.6089,-1.18553 3.72594,-1.18553 z"
             inkscape:export-filename="/home/xweber/daten/siduction/text_plus_symbol_as_bit1.png"
             inkscape:export-xdpi="150"
             inkscape:export-ydpi="150" />
          <path
             inkscape:connector-curvature="0"
             id="path3623-8-3-3-1-8-6-9-9-4-8-7-3-4-7-0-1-6-5-3-2-1-0-9-0-1"
             style="font-style:normal;font-variant:normal;font-weight:normal;font-stretch:normal;font-size:268.14126587px;line-height:125%;font-family:Axaxax;-inkscape-font-specification:Axaxax;letter-spacing:0px;word-spacing:0px;fill:#162d50;fill-opacity:1;stroke:none"
             d="m 287.11275,235.95908 q -20.23867,0 -20.23867,-11.68592 v -17.9523 q 0,-2.117 1.52427,-3.21784 1.6089,-1.18553 3.8106,-1.18553 2.11701,0 3.72595,1.18553 1.60893,1.10084 1.60893,3.21784 v 16.85143 q 0,4.23405 9.56892,4.23405 h 8.12931 v -21.08548 q 0,-2.117 1.52427,-3.21784 1.60894,-1.18553 3.81061,-1.18553 2.11704,0 3.72597,1.18553 1.60891,1.10084 1.60891,3.21784 v 25.48888 q 0,4.14934 -5.33488,4.14934 z"
             inkscape:export-filename="/home/xweber/daten/siduction/text_plus_symbol_as_bit1.png"
             inkscape:export-xdpi="150"
             inkscape:export-ydpi="150" />
          <path
             inkscape:connector-curvature="0"
             id="path3625-1-8-1-7-4-7-7-5-96-0-0-6-3-4-0-1-9-6-6-69-6-6-7-3-0"
             style="font-style:normal;font-variant:normal;font-weight:normal;font-stretch:normal;font-size:268.14126587px;line-height:125%;font-family:Axaxax;-inkscape-font-specification:Axaxax;letter-spacing:0px;word-spacing:0px;fill:#162d50;fill-opacity:1;stroke:none"
             d="m 330.96667,201.32472 q 20.40804,0 20.40804,10.83912 0,4.74211 -5.50425,4.74211 -5.08084,0 -5.08084,-3.81064 0,-3.30254 -9.06082,-3.30254 -10.07698,0 -10.07698,3.72594 v 11.77062 q 0,3.47191 8.72211,3.47191 10.41569,0 10.41569,-3.47191 0,-4.23404 5.08084,-4.23404 5.58891,0 5.58891,4.23404 0,11.26252 -20.32333,11.26252 -20.15398,0 -20.15398,-9.82295 v -14.39569 q 0,-11.00849 19.98461,-11.00849 z"
             inkscape:export-filename="/home/xweber/daten/siduction/text_plus_symbol_as_bit1.png"
             inkscape:export-xdpi="150"
             inkscape:export-ydpi="150" />
          <path
             inkscape:connector-curvature="0"
             id="path3627-2-2-0-9-2-6-2-3-6-8-3-2-3-5-0-1-6-5-80-1-5-2-2-3-3"
             style="font-style:normal;font-variant:normal;font-weight:normal;font-stretch:normal;font-size:268.14126587px;line-height:125%;font-family:Axaxax;-inkscape-font-specification:Axaxax;letter-spacing:0px;word-spacing:0px;fill:#162d50;fill-opacity:1;stroke:none"
             d="m 367.19575,201.32654 0.96223,-0.002 c 1.69361,-0.003 3.02028,0.4234 3.97998,1.2702 0.9597,0.8468 1.43957,1.86297 1.43957,3.04851 0,1.12907 -0.47987,2.117 -1.43957,2.9638 -0.9597,0.84684 -2.28668,1.30283 -3.97998,1.27024 l -0.96223,-0.0185 0.004,15.68442 c 0,1.3549 1.41134,2.03233 4.23404,2.03233 3.78238,0 5.67358,1.3549 5.67358,4.06468 0,2.87913 -1.7783,4.3187 -5.33487,4.3187 -10.16166,0 -15.2425,-2.738 -15.2425,-8.21401 v -33.2539 c 0,-1.41133 0.5363,-2.48397 1.60894,-3.21787 1.07263,-0.7339 2.3146,-1.10083 3.72594,-1.10083 1.4678,0 2.70977,0.36693 3.72594,1.10083 1.07263,0.7339 1.60893,1.80654 1.60893,3.21787 z"
             sodipodi:nodetypes="csssssccssssscsccc"
             inkscape:export-filename="/home/xweber/daten/siduction/text_plus_symbol_as_bit1.png"
             inkscape:export-xdpi="150"
             inkscape:export-ydpi="150" />
          <path
             inkscape:connector-curvature="0"
             id="path3629-26-3-0-1-5-9-6-5-4-9-7-2-4-3-4-9-8-7-2-0-7-8-2-3-7"
             style="font-style:normal;font-variant:normal;font-weight:normal;font-stretch:normal;font-size:268.14126587px;line-height:125%;font-family:Axaxax;-inkscape-font-specification:Axaxax;letter-spacing:0px;word-spacing:0px;fill:#162d50;fill-opacity:1;stroke:none"
             d="m 387.51199,190.23157 q 2.20171,0 3.72594,1.18553 1.60894,1.10084 1.60894,3.04851 v 1.86297 q 0,2.117 -1.60894,3.21784 -1.52423,1.10087 -3.72594,1.10087 -2.28637,0 -3.81064,-1.18554 -1.52423,-1.18553 -1.52423,-3.13317 v -1.86297 q 0,-1.77831 1.43957,-2.96384 1.43957,-1.2702 3.8953,-1.2702 z m 0,13.29485 q 2.20171,0 3.72594,1.10084 1.60894,1.10084 1.60894,3.21787 v 23.79525 q 0,2.03233 -1.60894,3.21784 -1.52423,1.10086 -3.72594,1.10086 -2.45573,0 -3.8953,-1.2702 -1.43957,-1.27023 -1.43957,-3.0485 v -23.79525 q 0,-1.94767 1.52423,-3.13317 1.52427,-1.18554 3.81064,-1.18554 z"
             inkscape:export-filename="/home/xweber/daten/siduction/text_plus_symbol_as_bit1.png"
             inkscape:export-xdpi="150"
             inkscape:export-ydpi="150" />
          <path
             inkscape:connector-curvature="0"
             id="path3631-9-0-5-0-4-7-4-1-1-7-2-4-2-0-7-0-0-69-10-42-8-9-1-7-8"
             style="font-style:normal;font-variant:normal;font-weight:normal;font-stretch:normal;font-size:268.14126587px;line-height:125%;font-family:Axaxax;-inkscape-font-specification:Axaxax;letter-spacing:0px;word-spacing:0px;fill:#162d50;fill-opacity:1;stroke:none"
             d="m 418.32506,201.32472 q 20.15397,0 20.15397,11.60125 v 12.02463 q 0,11.60125 -20.15397,11.60125 -20.40801,0 -20.40801,-11.60125 v -12.02463 q 0,-11.60125 20.40801,-11.60125 z m 0,8.46805 q -9.65359,0 -9.65359,3.1332 v 12.02463 q 0,3.13317 9.65359,3.13317 9.48421,0 9.48421,-3.13317 v -12.02463 q 0,-3.1332 -9.48421,-3.1332 z"
             inkscape:export-filename="/home/xweber/daten/siduction/text_plus_symbol_as_bit1.png"
             inkscape:export-xdpi="150"
             inkscape:export-ydpi="150" />
          <path
             inkscape:connector-curvature="0"
             id="path3633-1-7-0-3-2-6-0-1-9-8-3-7-4-7-5-0-8-7-5-74-5-5-6-3-8"
             style="font-style:normal;font-variant:normal;font-weight:normal;font-stretch:normal;font-size:268.14126587px;line-height:125%;font-family:Axaxax;-inkscape-font-specification:Axaxax;letter-spacing:0px;word-spacing:0px;fill:#162d50;fill-opacity:1;stroke:none"
             d="m 463.7879,201.91749 q 20.23867,0 20.23867,11.68592 v 17.95227 q 0,2.11703 -1.60894,3.30254 -1.52424,1.10086 -3.72594,1.10086 -2.117,0 -3.72594,-1.10086 -1.60894,-1.18551 -1.60894,-3.30254 v -16.85143 q 0,-4.23401 -9.56891,-4.23401 h -9.56889 v 21.08544 q 0,2.11703 -1.60894,3.30254 -1.52426,1.10086 -3.72594,1.10086 -2.11703,0 -3.72597,-1.10086 -1.6089,-1.18551 -1.6089,-3.30254 v -25.48885 q 0,-4.14934 5.33487,-4.14934 z"
             inkscape:export-filename="/home/xweber/daten/siduction/text_plus_symbol_as_bit1.png"
             inkscape:export-xdpi="150"
             inkscape:export-ydpi="150" />
        </g>
        <path
           transform="matrix(0.37247639,0,0,0.37247639,1446.1167,961.58516)"
           sodipodi:nodetypes="scsscscsscs"
           inkscape:export-ydpi="90"
           inkscape:export-xdpi="90"
           inkscape:export-filename="/home/xweber/src/siduction/artwork-newsid/candidates/document/ec-dots.png"
           d="m -11.288664,60.996951 c 2.6887001,0 4.9636501,0.7238 6.8250401,2.1715 1.96481,1.3444 2.94726,3.2058 2.94726,5.5842 v 3.4125 c 0,2.5853 -0.98245,4.5501 -2.94726,5.8944 -1.86139,1.3443 -4.13634,2.0165 -6.8250401,2.0165 -2.79202,0 -5.11876,-0.7239 -6.98015,-2.1716 -1.86138,-1.4478 -2.79204,-3.3608 -2.79204,-5.7393 v -3.4125 c 0,-2.1717 0.87893,-3.9813 2.63691,-5.4291 1.75796,-1.5511 4.13643,-2.3266 7.13528,-2.3266 z"
           style="font-style:normal;font-variant:normal;font-weight:normal;font-stretch:normal;font-size:268.14126587px;line-height:125%;font-family:Axaxax;-inkscape-font-specification:Axaxax;letter-spacing:0px;word-spacing:0px;fill:#162d50;fill-opacity:1;stroke:none"
           id="path3629-26-8-31-2-11-0-9-0-3-2-6"
           inkscape:connector-curvature="0" />
      </g>
      <g
         transform="matrix(0.06414214,0,0,0.0624676,-130.50374,1204.6363)"
         style="display:inline"
         id="g6718-5-6-0-2">
        <path
           inkscape:connector-curvature="0"
           id="path4680-7-52-4-93"
           d="m 1182.5051,525.9733 c 0,-47.17499 -38.2417,-85.4166 -85.4166,-85.41659 -47.1758,9.8e-4 -85.4174,38.24261 -85.4175,85.41746 0,47.17489 38.2417,85.4165 85.4166,85.41659 47.1749,-8e-5 85.4177,-38.24286 85.4175,-85.41746 z"
           style="display:inline;fill:url(#radialGradient4414-6-37);fill-opacity:1;fill-rule:nonzero;stroke:none" />
        <path
           id="path4680-8-3-6-6-1"
           d="m 1038.8171,661.11962 c 0,-42.45748 -34.4175,-76.8749 -76.87491,-76.87492 -42.45823,8.1e-4 -76.8757,34.41829 -76.8757,76.87571 3e-5,42.45743 34.41745,76.87486 76.87492,76.87491 42.45739,-2e-5 76.87589,-34.41852 76.87569,-76.8757 z"
           style="display:inline;fill:url(#radialGradient4416-0-2);fill-opacity:1;fill-rule:nonzero;stroke:none"
           inkscape:connector-curvature="0" />
        <path
           id="path4680-87-9-5-7-9"
           d="m 1041.8584,393.8684 c 10e-5,-42.4574 -34.4174,-76.87487 -76.87485,-76.87489 -42.45824,8.2e-4 -76.87571,34.41829 -76.87571,76.87571 4e-5,42.45742 34.41751,76.87489 76.87489,76.87489 42.45727,-1.7e-4 76.87577,-34.41867 76.87567,-76.87571 z"
           style="display:inline;fill:url(#radialGradient4418-7-2);fill-opacity:1;fill-rule:nonzero;stroke:none"
           inkscape:connector-curvature="0" />
        <path
           id="path4680-8-4-0-87-6-4"
           d="m 899.0246,529.01469 c -2e-5,-38.21171 -30.97571,-69.18741 -69.18742,-69.18743 -38.2124,7.3e-4 -69.18813,30.97646 -69.18813,69.18813 3e-5,38.2117 30.97572,69.1874 69.18743,69.18742 38.21162,-5e-5 69.18826,-30.9767 69.18812,-69.18812 z"
           style="display:inline;fill:url(#radialGradient4420-0-8);fill-opacity:1;fill-rule:nonzero;stroke:none"
           inkscape:connector-curvature="0" />
        <path
           id="path4680-87-5-7-9-0-7"
           d="m 904.12658,263.82411 c -10e-6,-38.2117 -30.97571,-69.18741 -69.18741,-69.18741 -38.21241,7.2e-4 -69.18814,30.97646 -69.18814,69.18814 2e-5,38.21168 30.97572,69.18739 69.18741,69.18741 38.21163,-6e-5 69.18828,-30.97671 69.18814,-69.18814 z"
           style="display:inline;fill:url(#radialGradient4422-1-9);fill-opacity:1;fill-rule:nonzero;stroke:none"
           inkscape:connector-curvature="0" />
        <path
           id="path4680-87-6-2-6-9-8"
           d="m 905.87411,786.37515 c -3e-5,-38.21171 -30.97572,-69.1874 -69.18743,-69.18742 -38.2124,7.3e-4 -69.18813,30.97646 -69.18814,69.18814 4e-5,38.21169 30.97573,69.18738 69.18743,69.18743 38.21162,-7e-5 69.18828,-30.97672 69.18814,-69.18815 z"
           style="display:inline;fill:url(#radialGradient4424-0-7);fill-opacity:1;fill-rule:nonzero;stroke:none"
           inkscape:connector-curvature="0" />
        <path
           id="path4680-8-4-2-7-0-7-4"
           d="m 766.85033,654.2702 c -10e-6,-34.39054 -27.87814,-62.26867 -62.26867,-62.26867 -34.39116,6.5e-4 -62.26931,27.8788 -62.26931,62.2693 10e-6,34.39053 27.87814,62.26866 62.26867,62.26868 34.39046,-5e-5 62.26944,-27.87903 62.26931,-62.26931 z"
           style="display:inline;fill:url(#radialGradient4426-1-3);fill-opacity:1;fill-rule:nonzero;stroke:none"
           inkscape:connector-curvature="0" />
        <path
           id="path4680-87-5-9-2-4-5-5"
           d="m 762.06153,398.97041 c -3e-5,-34.39053 -27.87816,-62.26866 -62.26867,-62.26867 -34.39118,6.6e-4 -62.26933,27.87881 -62.26932,62.26932 0,34.39052 27.87814,62.26865 62.26867,62.26868 34.39046,-5e-5 62.26945,-27.87905 62.26932,-62.26933 z"
           style="display:inline;fill:url(#radialGradient4428-3-6);fill-opacity:1;fill-rule:nonzero;stroke:none"
           inkscape:connector-curvature="0" />
        <path
           id="path4680-8-4-2-6-9-1-9-0"
           d="m 630.57914,524.22594 c -1e-5,-30.95148 -25.09033,-56.0418 -56.04182,-56.04181 -30.95204,5.8e-4 -56.04238,25.09092 -56.04238,56.04239 2e-5,30.95147 25.09034,56.04179 56.04181,56.04181 30.95142,-5e-5 56.04251,-25.09114 56.04239,-56.04239 z"
           style="display:inline;fill:url(#radialGradient4430-7-1);fill-opacity:1;fill-rule:nonzero;stroke:none"
           inkscape:connector-curvature="0" />
      </g>
      <g
         aria-label="the community based OS"
         transform="matrix(0.73525771,0,0,0.71606258,-320.83014,1337.1292)"
         style="font-style:normal;font-weight:bold;line-height:0.01%;font-family:sans-serif;-inkscape-font-specification:'Sans Bold';letter-spacing:0px;word-spacing:0px;fill:#6f7c91;fill-opacity:1;stroke:none"
         id="flowRoot4824-8-3">
        <path
           d="m 37.948242,-103.71289 v 2.79492 h 3.243164 v 2.250001 h -3.243164 v 4.174805 q 0,0.685547 0.272461,0.931641 0.272461,0.237304 1.081055,0.237304 h 1.617187 v 2.25 h -2.698242 q -1.863281,0 -2.645508,-0.773437 -0.773437,-0.782227 -0.773437,-2.645508 v -4.174805 h -1.564453 v -2.250001 h 1.564453 v -2.79492 z"
           style="font-style:normal;font-variant:normal;font-weight:bold;font-stretch:normal;font-size:18px;line-height:1.25;font-family:'DejaVu Sans';-inkscape-font-specification:'DejaVu Sans Bold'"
           id="path1800"
           inkscape:connector-curvature="0" />
        <path
           d="m 53.021484,-97.068359 v 5.99414 h -3.164062 v -0.975586 -3.594726 q 0,-1.291992 -0.06152,-1.775391 -0.05273,-0.483398 -0.193359,-0.711914 -0.18457,-0.307617 -0.500977,-0.474609 -0.316406,-0.175782 -0.720703,-0.175782 -0.984375,0 -1.546875,0.764649 -0.5625,0.755859 -0.5625,2.100586 v 4.842773 H 43.125 V -104.75 h 3.146484 v 5.273438 q 0.711914,-0.861328 1.511719,-1.265628 0.799805,-0.41308 1.766602,-0.41308 1.705078,0 2.583984,1.04589 0.887695,1.045903 0.887695,3.041021 z"
           style="font-style:normal;font-variant:normal;font-weight:bold;font-stretch:normal;font-size:18px;line-height:1.25;font-family:'DejaVu Sans';-inkscape-font-specification:'DejaVu Sans Bold'"
           id="path1802"
           inkscape:connector-curvature="0" />
        <path
           d="m 65.783203,-96.022461 v 0.896484 h -7.356445 q 0.114258,1.107422 0.799804,1.661133 0.685547,0.553711 1.916016,0.553711 0.993164,0 2.030274,-0.290039 1.045898,-0.298828 2.144531,-0.896484 v 2.425781 q -1.116211,0.421875 -2.232422,0.632813 -1.116211,0.219726 -2.232422,0.219726 -2.671875,0 -4.157227,-1.353516 -1.476562,-1.362304 -1.476562,-3.814453 0,-2.408203 1.450195,-3.788086 1.458985,-1.379879 4.007813,-1.379879 2.320312,0 3.708984,1.397458 1.397461,1.39746 1.397461,3.735351 z m -3.234375,-1.045898 q 0,-0.896485 -0.527344,-1.441407 -0.518554,-0.553711 -1.362304,-0.553711 -0.914063,0 -1.485352,0.518555 -0.571289,0.509766 -0.711914,1.476563 z"
           style="font-style:normal;font-variant:normal;font-weight:bold;font-stretch:normal;font-size:18px;line-height:1.25;font-family:'DejaVu Sans';-inkscape-font-specification:'DejaVu Sans Bold'"
           id="path1804"
           inkscape:connector-curvature="0" />
        <path
           d="m 82.368164,-100.61035 v 2.566405 q -0.641602,-0.439453 -1.291992,-0.650391 -0.641602,-0.210937 -1.335938,-0.210937 -1.318359,0 -2.05664,0.773437 -0.729492,0.764649 -0.729492,2.144531 0,1.379883 0.729492,2.153321 0.738281,0.764648 2.05664,0.764648 0.738282,0 1.397461,-0.219726 0.667969,-0.219727 1.230469,-0.650391 v 2.575195 q -0.738281,0.272461 -1.50293,0.404297 -0.755859,0.140625 -1.520507,0.140625 -2.663086,0 -4.166016,-1.362305 -1.50293,-1.371093 -1.50293,-3.805664 0,-2.43457 1.50293,-3.796875 1.50293,-1.37109 4.166016,-1.37109 0.773437,0 1.520507,0.14062 0.75586,0.13184 1.50293,0.4043 z"
           style="font-style:normal;font-variant:normal;font-weight:bold;font-stretch:normal;font-size:18px;line-height:1.25;font-family:'DejaVu Sans';-inkscape-font-specification:'DejaVu Sans Bold'"
           id="path1806"
           inkscape:connector-curvature="0" />
        <path
           d="m 89.786133,-98.905273 q -1.045899,0 -1.59961,0.755859 -0.544921,0.74707 -0.544921,2.162109 0,1.415039 0.544921,2.170899 0.553711,0.74707 1.59961,0.74707 1.02832,0 1.573242,-0.74707 0.544922,-0.75586 0.544922,-2.170899 0,-1.415039 -0.544922,-2.162109 -0.544922,-0.755859 -1.573242,-0.755859 z m 0,-2.249997 q 2.540039,0 3.963867,1.37109 1.432617,1.371094 1.432617,3.796875 0,2.425782 -1.432617,3.796875 -1.423828,1.371094 -3.963867,1.371094 -2.548828,0 -3.990235,-1.371094 -1.432617,-1.371093 -1.432617,-3.796875 0,-2.425781 1.432617,-3.796875 1.441407,-1.37109 3.990235,-1.37109 z"
           style="font-style:normal;font-variant:normal;font-weight:bold;font-stretch:normal;font-size:18px;line-height:1.25;font-family:'DejaVu Sans';-inkscape-font-specification:'DejaVu Sans Bold'"
           id="path1808"
           inkscape:connector-curvature="0" />
        <path
           d="m 106.59961,-99.283203 q 0.59766,-0.914067 1.41504,-1.388677 0.82617,-0.48339 1.81055,-0.48339 1.69628,0 2.58398,1.04589 0.8877,1.045903 0.8877,3.041021 v 5.99414 h -3.16407 v -5.132812 q 0.009,-0.114258 0.009,-0.237305 0.009,-0.123047 0.009,-0.351562 0,-1.045899 -0.30762,-1.511719 -0.30761,-0.47461 -0.99316,-0.47461 -0.89648,0 -1.38867,0.738282 -0.4834,0.738281 -0.50098,2.135742 v 4.833984 h -3.16406 v -5.132812 q 0,-1.634766 -0.28125,-2.100586 -0.28125,-0.47461 -1.00195,-0.47461 -0.90528,0 -1.39747,0.747071 -0.49218,0.738281 -0.49218,2.118164 v 4.842773 h -3.164066 v -9.843751 h 3.164066 v 1.441408 q 0.58008,-0.834958 1.32715,-1.256838 0.75585,-0.42187 1.66113,-0.42187 1.01953,0 1.80176,0.49218 0.78222,0.49219 1.18652,1.379887 z"
           style="font-style:normal;font-variant:normal;font-weight:bold;font-stretch:normal;font-size:18px;line-height:1.25;font-family:'DejaVu Sans';-inkscape-font-specification:'DejaVu Sans Bold'"
           id="path1810"
           inkscape:connector-curvature="0" />
        <path
           d="m 125.37305,-99.283203 q 0.59765,-0.914067 1.41504,-1.388677 0.82617,-0.48339 1.81054,-0.48339 1.69629,0 2.58399,1.04589 0.88769,1.045903 0.88769,3.041021 v 5.99414 h -3.16406 v -5.132812 q 0.009,-0.114258 0.009,-0.237305 0.009,-0.123047 0.009,-0.351562 0,-1.045899 -0.30762,-1.511719 -0.30762,-0.47461 -0.99316,-0.47461 -0.89649,0 -1.38867,0.738282 -0.4834,0.738281 -0.50098,2.135742 v 4.833984 h -3.16406 v -5.132812 q 0,-1.634766 -0.28125,-2.100586 -0.28125,-0.47461 -1.00196,-0.47461 -0.90527,0 -1.39746,0.747071 -0.49219,0.738281 -0.49219,2.118164 v 4.842773 h -3.16406 v -9.843751 h 3.16406 v 1.441408 q 0.58008,-0.834958 1.32715,-1.256838 0.75586,-0.42187 1.66114,-0.42187 1.01953,0 1.80175,0.49218 0.78223,0.49219 1.18653,1.379887 z"
           style="font-style:normal;font-variant:normal;font-weight:bold;font-stretch:normal;font-size:18px;line-height:1.25;font-family:'DejaVu Sans';-inkscape-font-specification:'DejaVu Sans Bold'"
           id="path1812"
           inkscape:connector-curvature="0" />
        <path
           d="m 134.91797,-94.90625 v -6.01172 h 3.16406 v 0.984376 q 0,0.799805 -0.009,2.012696 -0.009,1.204101 -0.009,1.608398 0,1.186523 0.0615,1.713867 0.0615,0.518555 0.21093,0.75586 0.19336,0.307617 0.50098,0.474609 0.31641,0.166992 0.7207,0.166992 0.98438,0 1.54688,-0.755859 0.5625,-0.75586 0.5625,-2.100586 v -4.860353 h 3.14648 v 9.843751 h -3.14648 v -1.423828 q -0.71192,0.861328 -1.51172,1.274414 -0.79102,0.404297 -1.74902,0.404297 -1.70508,0 -2.60157,-1.045898 -0.88769,-1.045899 -0.88769,-3.041016 z"
           style="font-style:normal;font-variant:normal;font-weight:bold;font-stretch:normal;font-size:18px;line-height:1.25;font-family:'DejaVu Sans';-inkscape-font-specification:'DejaVu Sans Bold'"
           id="path1814"
           inkscape:connector-curvature="0" />
        <path
           d="m 157.75195,-97.068359 v 5.99414 h -3.16406 v -0.975586 -3.612304 q 0,-1.274414 -0.0615,-1.757813 -0.0527,-0.483398 -0.19336,-0.711914 -0.18457,-0.307617 -0.50098,-0.474609 -0.31641,-0.175782 -0.7207,-0.175782 -0.98438,0 -1.54688,0.764649 -0.5625,0.755859 -0.5625,2.100586 v 4.842773 h -3.14648 v -9.843751 h 3.14648 v 1.441408 q 0.71192,-0.861328 1.51172,-1.265628 0.79981,-0.41308 1.7666,-0.41308 1.70508,0 2.58399,1.04589 0.88769,1.045903 0.88769,3.041021 z"
           style="font-style:normal;font-variant:normal;font-weight:bold;font-stretch:normal;font-size:18px;line-height:1.25;font-family:'DejaVu Sans';-inkscape-font-specification:'DejaVu Sans Bold'"
           id="path1816"
           inkscape:connector-curvature="0" />
        <path
           d="m 160.6875,-100.91797 h 3.14648 v 9.843751 h -3.14648 z m 0,-3.83203 h 3.14648 v 2.56641 h -3.14648 z"
           style="font-style:normal;font-variant:normal;font-weight:bold;font-stretch:normal;font-size:18px;line-height:1.25;font-family:'DejaVu Sans';-inkscape-font-specification:'DejaVu Sans Bold'"
           id="path1818"
           inkscape:connector-curvature="0" />
        <path
           d="m 170.31152,-103.71289 v 2.79492 h 3.24317 v 2.250001 h -3.24317 v 4.174805 q 0,0.685547 0.27246,0.931641 0.27247,0.237304 1.08106,0.237304 h 1.61719 v 2.25 h -2.69825 q -1.86328,0 -2.6455,-0.773437 -0.77344,-0.782227 -0.77344,-2.645508 v -4.174805 h -1.56445 v -2.250001 h 1.56445 v -2.79492 z"
           style="font-style:normal;font-variant:normal;font-weight:bold;font-stretch:normal;font-size:18px;line-height:1.25;font-family:'DejaVu Sans';-inkscape-font-specification:'DejaVu Sans Bold'"
           id="path1820"
           inkscape:connector-curvature="0" />
        <path
           d="m 174.19629,-100.91797 h 3.14648 l 2.64551,6.679689 2.25,-6.679689 h 3.14649 l -4.13965,10.775392 q -0.62403,1.643555 -1.45899,2.293945 -0.82617,0.65918 -2.18847,0.65918 h -1.81934 v -2.06543 h 0.98438 q 0.7998,0 1.16015,-0.254883 0.36914,-0.254882 0.57129,-0.914062 l 0.0879,-0.272461 z"
           style="font-style:normal;font-variant:normal;font-weight:bold;font-stretch:normal;font-size:18px;line-height:1.25;font-family:'DejaVu Sans';-inkscape-font-specification:'DejaVu Sans Bold'"
           id="path1822"
           inkscape:connector-curvature="0" />
        <path
           d="m 198.72656,-93.104492 q 1.01074,0 1.53809,-0.738281 0.53613,-0.738282 0.53613,-2.144532 0,-1.40625 -0.53613,-2.144531 -0.52735,-0.738281 -1.53809,-0.738281 -1.01074,0 -1.55566,0.74707 -0.53613,0.738281 -0.53613,2.135742 0,1.397461 0.53613,2.144532 0.54492,0.738281 1.55566,0.738281 z m -2.09179,-6.37207 q 0.65039,-0.861328 1.4414,-1.265628 0.79102,-0.41308 1.81934,-0.41308 1.81933,0 2.98828,1.450192 1.16894,1.441406 1.16894,3.717773 0,2.276368 -1.16894,3.726563 -1.16895,1.441406 -2.98828,1.441406 -1.02832,0 -1.81934,-0.404297 -0.79101,-0.413086 -1.4414,-1.274414 v 1.423828 h -3.14649 V -104.75 h 3.14649 z"
           style="font-style:normal;font-variant:normal;font-weight:bold;font-stretch:normal;font-size:18px;line-height:1.25;font-family:'DejaVu Sans';-inkscape-font-specification:'DejaVu Sans Bold'"
           id="path1824"
           inkscape:connector-curvature="0" />
        <path
           d="m 210.80273,-95.503906 q -0.98437,0 -1.48535,0.333984 -0.49218,0.333985 -0.49218,0.984375 0,0.597656 0.3955,0.94043 0.4043,0.333984 1.11621,0.333984 0.8877,0 1.49414,-0.632812 0.60645,-0.641602 0.60645,-1.59961 v -0.360351 z m 4.80762,-1.186524 v 5.616211 h -3.17285 v -1.458984 q -0.63281,0.896484 -1.42383,1.30957 -0.79101,0.404297 -1.9248,0.404297 -1.5293,0 -2.48731,-0.887695 -0.94922,-0.896485 -0.94922,-2.320313 0,-1.731445 1.18653,-2.540039 1.19531,-0.808594 3.74414,-0.808594 h 1.85449 v -0.246093 q 0,-0.747071 -0.58887,-1.089844 -0.58886,-0.351563 -1.83691,-0.351563 -1.01074,0 -1.88086,0.202149 -0.87012,0.202148 -1.61719,0.606445 v -2.399417 q 1.01074,-0.24609 2.03028,-0.36914 1.01953,-0.13183 2.03906,-0.13183 2.66308,0 3.84082,1.05468 1.18652,1.045903 1.18652,3.41016 z"
           style="font-style:normal;font-variant:normal;font-weight:bold;font-stretch:normal;font-size:18px;line-height:1.25;font-family:'DejaVu Sans';-inkscape-font-specification:'DejaVu Sans Bold'"
           id="path1826"
           inkscape:connector-curvature="0" />
        <path
           d="m 226.24512,-100.61035 v 2.390623 q -1.01075,-0.421875 -1.95117,-0.632812 -0.94043,-0.210938 -1.7754,-0.210938 -0.89648,0 -1.33593,0.228516 -0.43067,0.219727 -0.43067,0.685547 0,0.37793 0.3252,0.580078 0.33398,0.202149 1.18652,0.298828 l 0.55371,0.0791 q 2.41699,0.307617 3.25196,1.010742 0.83496,0.703125 0.83496,2.206055 0,1.573242 -1.16016,2.364257 -1.16016,0.791016 -3.46289,0.791016 -0.97559,0 -2.02148,-0.158203 -1.03711,-0.149414 -2.13575,-0.457031 v -2.390625 q 0.94043,0.457031 1.92481,0.685547 0.99316,0.228515 2.01269,0.228515 0.92285,0 1.38868,-0.254883 0.46582,-0.254882 0.46582,-0.755859 0,-0.421875 -0.3252,-0.624023 -0.31641,-0.210938 -1.27441,-0.325196 l -0.55371,-0.07031 q -2.10059,-0.263672 -2.94434,-0.975586 -0.84375,-0.711914 -0.84375,-2.16211 0,-1.564453 1.07226,-2.320308 1.07227,-0.75586 3.28711,-0.75586 0.87012,0 1.82813,0.13183 0.95801,0.13184 2.08301,0.41309 z"
           style="font-style:normal;font-variant:normal;font-weight:bold;font-stretch:normal;font-size:18px;line-height:1.25;font-family:'DejaVu Sans';-inkscape-font-specification:'DejaVu Sans Bold'"
           id="path1828"
           inkscape:connector-curvature="0" />
        <path
           d="m 239.10352,-96.022461 v 0.896484 h -7.35645 q 0.11426,1.107422 0.7998,1.661133 0.68555,0.553711 1.91602,0.553711 0.99316,0 2.03027,-0.290039 1.0459,-0.298828 2.14454,-0.896484 v 2.425781 q -1.11622,0.421875 -2.23243,0.632813 -1.11621,0.219726 -2.23242,0.219726 -2.67187,0 -4.15723,-1.353516 -1.47656,-1.362304 -1.47656,-3.814453 0,-2.408203 1.4502,-3.788086 1.45898,-1.379879 4.00781,-1.379879 2.32031,0 3.70898,1.397458 1.39747,1.39746 1.39747,3.735351 z m -3.23438,-1.045898 q 0,-0.896485 -0.52734,-1.441407 -0.51856,-0.553711 -1.36231,-0.553711 -0.91406,0 -1.48535,0.518555 -0.57129,0.509766 -0.71191,1.476563 z"
           style="font-style:normal;font-variant:normal;font-weight:bold;font-stretch:normal;font-size:18px;line-height:1.25;font-family:'DejaVu Sans';-inkscape-font-specification:'DejaVu Sans Bold'"
           id="path1830"
           inkscape:connector-curvature="0" />
        <path
           d="M 248.17383,-99.476562 V -104.75 h 3.16406 v 13.675781 h -3.16406 v -1.423828 q -0.65039,0.870117 -1.43262,1.274414 -0.78223,0.404297 -1.81055,0.404297 -1.81933,0 -2.98828,-1.441406 -1.16894,-1.450195 -1.16894,-3.726563 0,-2.276367 1.16894,-3.717773 1.16895,-1.450192 2.98828,-1.450192 1.01954,0 1.80176,0.41308 0.79102,0.4043 1.44141,1.265628 z m -2.07422,6.37207 q 1.01074,0 1.53809,-0.738281 0.53613,-0.738282 0.53613,-2.144532 0,-1.40625 -0.53613,-2.144531 -0.52735,-0.738281 -1.53809,-0.738281 -1.00195,0 -1.53809,0.738281 -0.52734,0.738281 -0.52734,2.144531 0,1.40625 0.52734,2.144532 0.53614,0.738281 1.53809,0.738281 z"
           style="font-style:normal;font-variant:normal;font-weight:bold;font-stretch:normal;font-size:18px;line-height:1.25;font-family:'DejaVu Sans';-inkscape-font-specification:'DejaVu Sans Bold'"
           id="path1832"
           inkscape:connector-curvature="0" />
        <path
           d="m 266.77148,-101.98145 q -1.54687,0 -2.39941,1.14258 -0.85254,1.142581 -0.85254,3.2168 0,2.065429 0.85254,3.208008 0.85254,1.142578 2.39941,1.142578 1.55567,0 2.40821,-1.142578 0.85254,-1.142579 0.85254,-3.208008 0,-2.074219 -0.85254,-3.2168 -0.85254,-1.14258 -2.40821,-1.14258 z m 0,-2.45214 q 3.16407,0 4.95704,1.81054 1.79296,1.81055 1.79296,5.00098 0,3.18164 -1.79296,4.992187 -1.79297,1.810547 -4.95704,1.810547 -3.15527,0 -4.95703,-1.810547 -1.79297,-1.810547 -1.79297,-4.992187 0,-3.19043 1.79297,-5.00098 1.80176,-1.81054 4.95703,-1.81054 z"
           style="font-style:normal;font-variant:normal;font-weight:bold;font-stretch:normal;font-size:18px;line-height:1.25;font-family:'DejaVu Sans';-inkscape-font-specification:'DejaVu Sans Bold'"
           id="path1834"
           inkscape:connector-curvature="0" />
        <path
           d="m 285.20215,-103.7832 v 2.77734 q -1.08106,-0.4834 -2.10938,-0.72949 -1.02832,-0.2461 -1.94238,-0.2461 -1.21289,0 -1.79297,0.33399 -0.58008,0.33398 -0.58008,1.03711 0,0.52734 0.38672,0.82617 0.39551,0.290039 1.42383,0.500977 l 1.44141,0.290039 q 2.18847,0.439453 3.11132,1.335937 0.92286,0.896485 0.92286,2.548829 0,2.170898 -1.292,3.234375 -1.2832,1.054687 -3.92871,1.054687 -1.24804,0 -2.50488,-0.237305 -1.25684,-0.237304 -2.51367,-0.703125 v -2.856445 q 1.25683,0.667969 2.42578,1.010742 1.17773,0.333985 2.26758,0.333985 1.10742,0 1.69629,-0.369141 0.58886,-0.369141 0.58886,-1.054687 0,-0.615235 -0.40429,-0.949219 -0.39551,-0.333985 -1.59082,-0.597656 l -1.30957,-0.29004 q -1.96875,-0.421875 -2.88282,-1.344726 -0.90527,-0.922852 -0.90527,-2.487307 0,-1.95996 1.26563,-3.01465 1.26562,-1.05468 3.63867,-1.05468 1.08105,0 2.22363,0.16699 1.14258,0.1582 2.36426,0.4834 z"
           style="font-style:normal;font-variant:normal;font-weight:bold;font-stretch:normal;font-size:18px;line-height:1.25;font-family:'DejaVu Sans';-inkscape-font-specification:'DejaVu Sans Bold'"
           id="path1836"
           inkscape:connector-curvature="0" />
      </g>
      <path
         style="fill:none;stroke:#ff6600;stroke-width:2.90274239;stroke-linecap:butt;stroke-linejoin:miter;stroke-miterlimit:4;stroke-dasharray:none;stroke-opacity:1"
         d="m -311.54093,1257.2184 221.532489,0.7621 13.6393,12.1502 30.3171,-31.2471 22.469361,-0.07"
         id="path3876-1-0-6"
         inkscape:connector-curvature="0"
         sodipodi:nodetypes="ccccc"
         inkscape:export-filename="/home/coruja/siduction/artwork/coruja.web.header.png"
         inkscape:export-xdpi="89"
         inkscape:export-ydpi="89" />
    </g>
  </g>
</svg>
